<?xml version="1.0" encoding="UTF-8" standalone="no"?>
<!-- Created with Inkscape (http://www.inkscape.org/) -->

<svg
   version="1.1"
   id="svg2"
   width="256"
   height="256"
   viewBox="0 0 256 256"
   sodipodi:docname="icon stagger immunity.svg"
   inkscape:export-filename="D:\SteamLibrary\steamapps\common\RimWorld\Mods\DragonianOverload\Content\Textures\UI\Abilities\Stagger Immunity On.png"
   inkscape:export-xdpi="24"
   inkscape:export-ydpi="24"
   inkscape:version="1.1.1 (3bf5ae0d25, 2021-09-20)"
   xmlns:inkscape="http://www.inkscape.org/namespaces/inkscape"
   xmlns:sodipodi="http://sodipodi.sourceforge.net/DTD/sodipodi-0.dtd"
   xmlns="http://www.w3.org/2000/svg"
   xmlns:svg="http://www.w3.org/2000/svg">
  <defs
     id="defs6">
    <rect
       x="-26.043931"
       y="-117.19769"
       width="78.7237"
       height="45.576879"
       id="rect2121" />
    <linearGradient
       id="linearGradient4521"
       inkscape:swatch="solid">
      <stop
         style="stop-color:#000000;stop-opacity:1;"
         offset="0"
         id="stop4519" />
    </linearGradient>
    <linearGradient
       id="linearGradient2105"
       inkscape:swatch="gradient">
      <stop
         style="stop-color:#000000;stop-opacity:1"
         offset="0"
         id="stop2101" />
      <stop
         style="stop-color:#a1f5f8;stop-opacity:1"
         offset="1"
         id="stop2103" />
    </linearGradient>
    <filter
       inkscape:collect="always"
       style="color-interpolation-filters:sRGB"
       id="filter33442"
       x="-0.064071428"
       y="-0.067594371"
       width="1.1283055"
       height="1.135285">
      <feGaussianBlur
         inkscape:collect="always"
         stdDeviation="7.5535807"
         id="feGaussianBlur33444" />
    </filter>
  </defs>
  <sodipodi:namedview
     id="namedview4"
     pagecolor="#505050"
     bordercolor="#ffffff"
     borderopacity="1"
     inkscape:pageshadow="0"
     inkscape:pageopacity="0"
     inkscape:pagecheckerboard="1"
     showgrid="false"
     inkscape:zoom="1.1946238"
     inkscape:cx="77.848778"
     inkscape:cy="164.90548"
     inkscape:window-width="1842"
     inkscape:window-height="1057"
     inkscape:window-x="70"
     inkscape:window-y="-8"
     inkscape:window-maximized="1"
     inkscape:current-layer="layer3" />
  <g
     inkscape:groupmode="layer"
     id="layer2"
     inkscape:label="bg">
    <rect
       style="fill:#2b2b2b;fill-opacity:1;fill-rule:evenodd;stroke:#a1f5f8;stroke-width:0;stroke-linecap:round;stroke-linejoin:round;stroke-miterlimit:4;stroke-dasharray:none;stroke-opacity:1"
       id="rect2019"
       width="256.00027"
       height="256"
       x="0.0002734049"
       y="-0.00019141397" />
  </g>
  <g
     inkscape:groupmode="layer"
     id="layer4"
     inkscape:label="effect">
    <path
       style="opacity:0.6;mix-blend-mode:normal;fill:#a1f5f8;fill-opacity:1;stroke:#000000;stroke-width:1px;stroke-linecap:butt;stroke-linejoin:miter;stroke-opacity:1;filter:url(#filter33442)"
       d="M 127.65525,268.70385 C 49.14561,150.56147 22.182715,49.666963 87.47524,26.786676 147.5498,4.6606284 286.2826,3.6273623 317.2547,4.6039603 L 341.53012,280.00448 Z"
       id="path30193"
       sodipodi:nodetypes="ccccc"
       transform="matrix(1.0000011,0,0,0.99999999,2.7289318e-4,-1.919257e-4)" />
  </g>
  <g
     inkscape:groupmode="layer"
     id="layer1"
     inkscape:label="Image 1"
     style="display:inline">
    <path
       style="display:inline;fill:#dadada;fill-opacity:1;stroke:#000000;stroke-width:8;stroke-linecap:butt;stroke-linejoin:round;stroke-miterlimit:4;stroke-dasharray:none;stroke-opacity:1"
       d="m 71.206139,93.197233 c -3.278121,-2.422237 -6.0974,-7.04303 -8.768618,-12.373335 4.212826,-15.751218 9.508404,-19.999819 14.645688,-25.929854 l -0.564108,-8.052541 c 6.045764,-2.068733 12.916842,-3.44752 19.711944,-4.023899 2.533729,-1.394439 8.550575,-3.944351 14.020655,-5.080307 3.29182,-0.586371 10.2729,-0.37032 13.20139,0.901471 l 2.44658,6.394382 c 19.01613,3.365835 33.65136,29.530144 26.01262,59.77817 -7.1889,9.54234 -29.52361,14.20364 -46.68595,17.82144 -6.90012,1.12797 -9.731474,4.33292 -17.375355,15.99145 -1.052849,-3.36023 -2.131105,-8.21304 -2.634176,-11.97835 l -1.514671,-0.23439 c -3.634542,-4.38399 -6.030652,-8.63429 -7.595225,-14.24856 l -1.076465,1.23873 z"
       id="path66973"
       sodipodi:nodetypes="cccccccccccccccc" />
    <path
       style="display:inline;fill:#a1f5f8;fill-opacity:1;stroke:#000000;stroke-width:5;stroke-linecap:butt;stroke-linejoin:miter;stroke-miterlimit:4;stroke-dasharray:none;stroke-opacity:1"
       d="m 96.313629,88.517734 c -6.326237,3.210998 -12.412502,4.375047 -18.506667,5.606545 l 2.736235,9.527871 c 1.19436,0.21129 2.179636,0.27623 3.587626,0.63701 2.289041,1.73428 3.180174,3.86211 4.617666,5.83612 4.04576,-1.06271 8.316556,-1.71003 10.94482,-5.38909 0.482271,-5.369729 0.567511,-10.748442 -3.37968,-16.218456 z"
       id="path902"
       sodipodi:nodetypes="ccccccc" />
  </g>
  <g
     inkscape:groupmode="layer"
     inkscape:label="Image"
     id="g8">
    <path
       style="display:inline;fill:#dadada;fill-opacity:1;stroke:#000000;stroke-width:8;stroke-linecap:round;stroke-linejoin:round;stroke-miterlimit:4;stroke-dasharray:none;stroke-opacity:1"
       d="m 101.33682,120.01672 -0.20293,6.36183 -2.330417,9.26015 -5.391616,1.69598 c -1.126421,3.32031 -0.56115,6.10434 -0.52173,9.05506 l -1.539262,0.68835 0.810861,4.6376 c -1.592252,4.80881 0.2069,8.65122 4.038464,11.91448 l 1.138982,4.46677 5.417048,4.0528 2.51377,6.68476 2.33985,2.26101 2.0642,0.74818 c -0.72338,5.76724 -2.01599,11.41187 -1.5385,17.43776 1.97976,2.00974 2.93798,2.52135 3.97251,3.1449 l 1.90255,0.69411 c -0.3374,3.78262 -1.14371,7.57869 -0.36346,11.32919 0.95938,1.16395 2.07362,2.27882 3.97252,3.14491 l 4.78094,1.48248 c 4.98749,12.03736 11.70511,22.77146 19.18495,32.79574 l -1.66316,1.42593 10.19097,14.61541 c 4.75638,11.80913 9.82151,23.89993 16.42183,34.75916 l 5.6354,9.938 27.6192,-8.75596 c 0.2666,-17.13153 -0.81288,-35.1397 -6.33734,-47.97754 l -3.01916,-2.55949 c 0.0388,-3.47192 -1.00524,-6.07856 -2.13121,-8.61975 l 1.68258,-2.44054 c 1.12902,-3.81913 1.15002,-7.81327 1.27811,-11.7905 l 5.66856,3.99835 3.8238,-3.19407 -8.47245,-15.73268 9.50833,1.53255 1.94545,1.7919 c 7.40377,4.93239 15.34155,4.17309 21.25256,5.01512 l 1.97936,1.43587 c 6.95957,1.88849 13.83893,2.48535 20.61852,1.47561 l 2.04424,0.96094 c 6.2403,0.39668 12.63537,0.57672 20.888,-1.8436 l 2.02705,0.57705 c 5.38432,-0.2523 10.67371,-1.57658 15.86705,-3.98541 8.87146,-2.29784 18.89645,-7.08025 22.10021,-13.49037 -5.76715,-6.52319 -19.07341,-7.78214 -27.46133,-5.91564 l -1.9913,-1.96243 c -5.63227,0.29982 -10.77099,2.15642 -15.91935,3.98258 l -2.11902,-2.70661 c -5.87182,-0.39536 -10.18911,0.582 -15.14582,0.99472 l -1.53501,-2.32778 c -5.62521,-1.90678 -11.34287,-2.02939 -17.07026,-1.96394 l -1.66891,-3.84639 c -6.7724,-2.76304 -13.10766,-3.15937 -19.55937,-4.1862 l -1.11998,-4.02595 c -6.53204,-4.60767 -12.23111,-5.55673 -18.18416,-7.62138 -0.21892,-2.46698 -1.0734,-4.19753 -2.11671,-5.90999 -5.20376,-3.23704 -11.64739,-6.54933 -18.25645,-8.64859 l -4.33746,0.70184 -2.4737,-16.88551 2.85512,5.22971 4.22549,-2.39383 -1.78813,-5.92428 3.99519,-2.27087 0.90658,-2.99437 c -6.24744,-13.47004 -13.60347,-25.649 -23.61406,-34.73633 -7.20989,0.28832 -14.54424,1.62635 -21.35442,3.5876 -9.18846,3.24376 -17.77317,6.70142 -25.44357,10.8316 z"
       id="path215759"
       sodipodi:nodetypes="cccccccccccccccccccccccccccccccccccccccccccccccccccccccccccccccccc" />
  </g>
  <g
     inkscape:groupmode="layer"
     id="layer3"
     inkscape:label="Image 2"
     style="display:inline">
    <path
       style="fill:none;stroke:#fffc4a;stroke-width:8;stroke-linecap:butt;stroke-linejoin:miter;stroke-miterlimit:4;stroke-dasharray:none;stroke-opacity:1"
       d="M -15.093385,145.01681 H 119.26976 c 25.03469,-13.20896 102.20281,-19.43395 145.01751,-20.42046"
       id="path5297"
       sodipodi:nodetypes="ccc" />
    <path
       sodipodi:type="star"
       style="fill:#df812d;fill-opacity:1;fill-rule:evenodd;stroke:#ff7a7f;stroke-width:0;stroke-linecap:round;stroke-linejoin:round;stroke-miterlimit:4;stroke-dasharray:none;stroke-opacity:1"
       id="path8273"
       inkscape:flatsided="false"
       sodipodi:sides="10"
       sodipodi:cx="119.26936"
       sodipodi:cy="144.42543"
       sodipodi:r1="5.9264693"
       sodipodi:r2="4.1485286"
       sodipodi:arg1="1.5208379"
       sodipodi:arg2="1.8349972"
       inkscape:rounded="0.1"
       inkscape:randomized="0.1"
       d="m 119.21798,150.72043 c -0.22478,0.0301 -0.62095,-2.27778 -0.86364,-2.32589 -0.24269,-0.0481 -2.15476,1.7206 -2.35111,1.58303 -0.19635,-0.13757 -0.31556,-3.22048 -0.47554,-3.39157 -0.15999,-0.17109 -1.93576,-0.40789 -2.02712,-0.63762 -0.0914,-0.22973 2.00111,-0.5097 2.02432,-0.74889 0.0232,-0.2392 -1.44436,-1.57382 -1.39092,-1.7968 0.0534,-0.22298 1.55958,-0.60021 1.71015,-0.77 0.15057,-0.16979 -0.9895,-2.95413 -0.82217,-3.13213 0.16732,-0.17799 2.21838,1.23064 2.44329,1.18142 0.22491,-0.0492 1.85155,-2.14761 2.09511,-2.12245 0.24356,0.0252 -0.0111,1.65175 0.21317,1.75186 0.22429,0.10011 2.8176,-1.30306 3.00157,-1.14024 0.18396,0.16281 -0.29544,2.78221 -0.17612,2.97762 0.11931,0.19541 1.84341,-0.12174 1.96322,0.0905 0.11981,0.21226 -1.29102,1.56227 -1.26439,1.80399 0.0266,0.24171 1.96032,2.25434 1.88018,2.47408 -0.0801,0.21975 -2.78473,-0.624 -2.89545,-0.41529 -0.11072,0.20871 1.0702,2.45557 0.88729,2.59632 -0.1829,0.14074 -2.33827,-1.01517 -2.57107,-0.95906 -0.2328,0.0561 -1.15598,2.95098 -1.38077,2.98109 z"
       inkscape:transform-center-x="-0.67268255"
       inkscape:transform-center-y="1.7267483"
       transform="matrix(3.7427487,-0.69087841,0.69087916,3.7427447,-425.48849,-314.1915)" />
    <path
       style="fill:none;fill-opacity:1;stroke:#fffc4a;stroke-width:8;stroke-linecap:butt;stroke-linejoin:miter;stroke-miterlimit:4;stroke-dasharray:none;stroke-opacity:1"
       d="M -48.933706,103.19051 91.154128,68.660807 C 106.18609,27.264234 153.00853,-15.784392 187.04324,-27.819845"
       id="path10256"
       sodipodi:nodetypes="ccc" />
    <path
       sodipodi:type="star"
       style="fill:#df812d;fill-opacity:1;fill-rule:evenodd;stroke:#ff7a7f;stroke-width:0;stroke-linecap:round;stroke-linejoin:round;stroke-miterlimit:4;stroke-dasharray:none;stroke-opacity:1"
       id="path8273-0"
       inkscape:flatsided="false"
       sodipodi:sides="10"
       sodipodi:cx="119.26936"
       sodipodi:cy="144.42543"
       sodipodi:r1="5.9264693"
       sodipodi:r2="4.1485286"
       sodipodi:arg1="1.5208379"
       sodipodi:arg2="1.8349972"
       inkscape:rounded="0.1"
       inkscape:randomized="0.1"
       inkscape:transform-center-x="1.4446623"
       inkscape:transform-center-y="1.3924957"
       transform="matrix(2.5385455,-3.2021536,3.202157,2.5385428,-671.71024,79.821029)"
       d="m 119.21798,150.72043 c -0.22478,0.0301 -0.62095,-2.27778 -0.86364,-2.32589 -0.24269,-0.0481 -2.15476,1.7206 -2.35111,1.58303 -0.19635,-0.13757 -0.31556,-3.22048 -0.47554,-3.39157 -0.15999,-0.17109 -1.93576,-0.40789 -2.02712,-0.63762 -0.0914,-0.22973 2.00111,-0.5097 2.02432,-0.74889 0.0232,-0.2392 -1.44436,-1.57382 -1.39092,-1.7968 0.0534,-0.22298 1.55958,-0.60021 1.71015,-0.77 0.15057,-0.16979 -0.9895,-2.95413 -0.82217,-3.13213 0.16732,-0.17799 2.21838,1.23064 2.44329,1.18142 0.22491,-0.0492 1.85155,-2.14761 2.09511,-2.12245 0.24356,0.0252 -0.0111,1.65175 0.21317,1.75186 0.22429,0.10011 2.8176,-1.30306 3.00157,-1.14024 0.18396,0.16281 -0.29544,2.78221 -0.17612,2.97762 0.11931,0.19541 1.84341,-0.12174 1.96322,0.0905 0.11981,0.21226 -1.29102,1.56227 -1.26439,1.80399 0.0266,0.24171 1.96032,2.25434 1.88018,2.47408 -0.0801,0.21975 -2.78473,-0.624 -2.89545,-0.41529 -0.11072,0.20871 1.0702,2.45557 0.88729,2.59632 -0.1829,0.14074 -2.33827,-1.01517 -2.57107,-0.95906 -0.2328,0.0561 -1.15598,2.95098 -1.38077,2.98109 z" />
    <path
       sodipodi:type="star"
       style="display:inline;fill:#fffc4a;fill-opacity:1;fill-rule:evenodd;stroke:#ff7a7f;stroke-width:0;stroke-linecap:round;stroke-linejoin:round;stroke-miterlimit:4;stroke-dasharray:none;stroke-opacity:1"
       id="path8273-0-0"
       inkscape:flatsided="false"
       sodipodi:sides="10"
       sodipodi:cx="119.26936"
       sodipodi:cy="144.42543"
       sodipodi:r1="5.9264693"
       sodipodi:r2="3.9707344"
       sodipodi:arg1="1.5208379"
       sodipodi:arg2="1.8349972"
       inkscape:rounded="0.05"
       inkscape:randomized="0.07"
       inkscape:transform-center-x="0.83932296"
       inkscape:transform-center-y="1.0654257"
       transform="matrix(1.3588076,-2.4158984,2.415901,1.3588061,-417.98454,156.49001)"
       d="m 119.32218,150.60765 c -0.1197,0.013 -0.60459,-1.94964 -0.72446,-1.98669 -0.11988,-0.0371 -2.48335,1.25056 -2.58656,1.17975 -0.10322,-0.0708 0.0351,-2.41888 -0.0372,-2.51422 -0.0723,-0.0953 -2.35737,-1.04276 -2.40413,-1.16182 -0.0468,-0.11907 1.57352,-1.37737 1.55751,-1.50307 -0.016,-0.1257 -1.1983,-1.25864 -1.169,-1.37638 0.0293,-0.11773 2.31143,-0.49794 2.38206,-0.60144 0.0706,-0.1035 -1.25043,-2.96142 -1.1598,-3.05016 0.0906,-0.0887 2.55343,1.23692 2.66946,1.19724 0.11603,-0.0397 1.40737,-2.25453 1.53421,-2.24728 0.12684,0.007 0.98134,2.30103 1.09798,2.3429 0.11665,0.0419 2.11407,-1.70796 2.21303,-1.62783 0.099,0.0801 -0.49465,2.93263 -0.41812,3.03398 0.0765,0.10134 2.30133,-0.14363 2.35856,-0.0307 0.0572,0.11296 -1.54141,2.25869 -1.52561,2.37842 0.0158,0.11972 2.0507,1.59707 2.01153,1.71369 -0.0392,0.11662 -2.64871,0.43295 -2.71086,0.53633 -0.0621,0.10337 0.80057,1.83552 0.70448,1.9105 -0.0961,0.075 -2.64179,-0.41112 -2.75977,-0.37543 -0.11798,0.0357 -0.9136,2.16917 -1.03331,2.18217 z" />
    <path
       sodipodi:type="star"
       style="display:inline;fill:#fffc4a;fill-opacity:1;fill-rule:evenodd;stroke:#ff7a7f;stroke-width:0;stroke-linecap:round;stroke-linejoin:round;stroke-miterlimit:4;stroke-dasharray:none;stroke-opacity:1"
       id="path8273-0-0-5"
       inkscape:flatsided="false"
       sodipodi:sides="10"
       sodipodi:cx="119.26936"
       sodipodi:cy="144.42543"
       sodipodi:r1="5.9264693"
       sodipodi:r2="3.9707344"
       sodipodi:arg1="1.5208379"
       sodipodi:arg2="1.8349972"
       inkscape:rounded="0.05"
       inkscape:randomized="0.07"
       inkscape:transform-center-x="-0.82078962"
       inkscape:transform-center-y="0.30718477"
       transform="matrix(-1.1707356,-2.2360688,2.2360712,-1.1707343,-63.197967,580.43329)"
       d="m 119.32218,150.60765 c -0.1197,0.013 -0.60459,-1.94964 -0.72446,-1.98669 -0.11988,-0.0371 -2.48335,1.25056 -2.58656,1.17975 -0.10322,-0.0708 0.0351,-2.41888 -0.0372,-2.51422 -0.0723,-0.0953 -2.35737,-1.04276 -2.40413,-1.16182 -0.0468,-0.11907 1.57352,-1.37737 1.55751,-1.50307 -0.016,-0.1257 -1.1983,-1.25864 -1.169,-1.37638 0.0293,-0.11773 2.31143,-0.49794 2.38206,-0.60144 0.0706,-0.1035 -1.25043,-2.96142 -1.1598,-3.05016 0.0906,-0.0887 2.55343,1.23692 2.66946,1.19724 0.11603,-0.0397 1.40737,-2.25453 1.53421,-2.24728 0.12684,0.007 0.98134,2.30103 1.09798,2.3429 0.11665,0.0419 2.11407,-1.70796 2.21303,-1.62783 0.099,0.0801 -0.49465,2.93263 -0.41812,3.03398 0.0765,0.10134 2.30133,-0.14363 2.35856,-0.0307 0.0572,0.11296 -1.54141,2.25869 -1.52561,2.37842 0.0158,0.11972 2.0507,1.59707 2.01153,1.71369 -0.0392,0.11662 -2.64871,0.43295 -2.71086,0.53633 -0.0621,0.10337 0.80057,1.83552 0.70448,1.9105 -0.0961,0.075 -2.64179,-0.41112 -2.75977,-0.37543 -0.11798,0.0357 -0.9136,2.16917 -1.03331,2.18217 z" />
    <text
       xml:space="preserve"
       id="text2119"
       style="font-style:normal;font-variant:normal;font-weight:bold;font-stretch:normal;font-size:42.6667px;line-height:1.15;font-family:Arial;-inkscape-font-specification:'Arial, Bold';font-variant-ligatures:normal;font-variant-caps:normal;font-variant-numeric:normal;font-variant-east-asian:normal;white-space:pre;shape-inside:url(#rect2121);fill:#00ff00;fill-opacity:1;stroke:none;stroke-width:0;stroke-miterlimit:4;stroke-dasharray:none"
       transform="matrix(1.0000011,0,0,0.99999999,195.92186,129.03565)"><tspan
         x="-26.042969"
         y="-80.898384"
         id="tspan18756">ON</tspan></text>
  </g>
</svg>
